#!OML:ASF I:\Actors\actors\Patient Classification 1\Patient 1\Session 1\Subject1.ASF
:FULLY-SPECIFIED
:DEGREES
1457
root 0.438826 17.5173 8.03411 6.83122 -2.24857 -6.80133
lowerback 3.67194 1.02568 5.50653
upperback -7.54112 1.88567 0.256476
thorax -9.92942 0.507428 -3.03527
lowerneck -14.5187 -4.70955 -3.2923
upperneck 39.1755 -9.77851 8.23145
head 17.5189 -3.40919 2.47571
rclavicle -4.67144e-015 8.74653e-015
rhumerus -30.7538 35.3013 -60.4963
rradius 48.9316
rwrist 60.4657
rhand 29.5222 -423.377
rfingers 7.12502
rthumb 53.2769 -802.692
lclavicle -4.67144e-015 8.74653e-015
lhumerus -29.1998 -39.5353 56.991
lradius 52.6183
lwrist -57.7528
lhand 4.86789 20.4112
lfingers 7.12502
lthumb 30.244 47.9541
rfemur 0.125403 25.0697 24.6825
rtibia 1.50269
rfoot -11.4923 -24.9582
rtoes 2.04897
lfemur 9.34722 -42.5724 -15.9315
ltibia -4.65701
lfoot -18.5848 48.8918
ltoes 6.33958
1458
root 0.441139 17.5166 8.03352 6.86135 -2.29961 -6.78565
lowerback 3.81793 1.0584 5.56503
upperback -7.68615 1.94607 0.202011
thorax -10.1719 0.519097 -3.13977
lowerneck -14.3884 -4.70323 -3.26417
upperneck 39.2384 -9.79278 8.24627
head 17.5218 -3.4116 2.48
rclavicle -8.44835e-015 2.38542e-015
rhumerus -30.2158 32.8643 -59.7639
rradius 48.2934
rwrist 61.9429
rhand 25.5438 -423.085
rfingers 7.12502
rthumb 49.6599 -804.484
lclavicle -8.44835e-015 2.38542e-015
lhumerus -28.3745 -36.106 56.0526
lradius 52.3415
lwrist -60.2623
lhand -4.12018 19.1604
lfingers 7.12502
lthumb 21.6385 47.9713
rfemur 0.0787618 25.0604 24.6269
rtibia 1.49788
rfoot -11.4868 -24.9078
rtoes 2.02009
lfemur 9.3274 -42.548 -15.9416
ltibia -4.67801
lfoot -18.6108 48.9088
ltoes 6.30533
1459
root 0.444019 17.5162 8.03386 6.88721 -2.35413 -6.79116
lowerback 4.1129 1.12124 5.73337
upperback -7.94718 2.06672 0.0804943
thorax -10.6266 0.537759 -3.39262
lowerneck -14.1858 -4.73896 -3.2243
upperneck 39.387 -9.91279 8.31531
head 17.5708 -3.44851 2.49175
rclavicle -2.06736e-014 -8.74653e-015
rhumerus -29.807 30.1144 -59.1912
rradius 47.5039
rwrist 62.4372
rhand 21.6108 -422.92
rfingers 7.12502
rthumb 46.0326 -806.001
lclavicle -2.06736e-014 -8.74653e-015
lhumerus -27.7385 -32.5035 55.2152
lradius 52.218
lwrist -62.4055
lhand -12.8983 17.5846
lfingers 7.12502
lthumb 13.1912 47.1473
rfemur 0.0502428 25.1043 24.5981
rtibia 1.46752
rfoot -11.5421 -24.8798
rtoes 2.22164
lfemur 9.36847 -42.6448 -15.9979
ltibia -4.68438
lfoot -18.6855 49.0287
ltoes 6.3306
1460
root 0.446359 17.5152 8.03451 6.88816 -2.40002 -6.80054
lowerback 4.24957 1.15854 5.82606
upperback -8.07784 2.13423 0.00675813
thorax -10.847 0.548629 -3.53938
lowerneck -14.0682 -4.75112 -3.17517
upperneck 39.4461 -9.98745 8.38641
head 17.5858 -3.46454 2.50639
rclavicle -3.58806e-014 -1.51076e-014
rhumerus -29.1632 27.4233 -58.5801
rradius 46.6258
rwrist 61.5443
rhand 16.2932 -422.725
rfingers 7.12502
rthumb 41.0675 -807.62
lclavicle -3.58806e-014 -1.51076e-014
lhumerus -26.9936 -28.3251 54.5162
lradius 52.1501
lwrist -63.3496
lhand -21.2582 15.8206
lfingers 7.12502
lthumb 5.12503 45.7386
rfemur 0.0599273 25.1704 24.6033
rtibia 1.45612
rfoot -11.5826 -24.8986
rtoes 2.35582
lfemur 9.41802 -42.6436 -16.0243
ltibia -4.71642
lfoot -18.7458 49.0378
ltoes 6.50548
1461
root 0.448089 17.5146 8.03402 6.86138 -2.42522 -6.78396
lowerback 4.2398 1.15566 5.79665
upperback -8.07568 2.12506 -0.00980506
thorax -10.8394 0.54608 -3.53927
lowerneck -14.0004 -4.71906 -3.11176
upperneck 39.3675 -9.96645 8.43166
head 17.5211 -3.44459 2.51827
rclavicle 5.96354e-016 -2.94201e-014
rhumerus -28.4393 24.1986 -57.858
rradius 45.9229
rwrist 61.2139
rhand 9.68495 -422.021
rfingers 7.12502
rthumb 34.8275 -808.617
lclavicle 5.96354e-016 -2.94201e-014
lhumerus -26.3012 -23.8436 54.065
lradius 52.3249
lwrist -63.2218
lhand -28.5279 13.6979
lfingers 7.12502
lthumb -1.89578 43.6693
rfemur 0.0892837 25.1854 24.5965
rtibia 1.47138
rfoot -11.5917 -24.8973
rtoes 2.32437
lfemur 9.43069 -42.4774 -16.0253
ltibia -4.75677
lfoot -18.599 48.9207
ltoes 6.46208
1462
root 0.450551 17.5144 8.03227 6.83408 -2.41619 -6.7686
lowerback 4.22154 1.13442 5.76763
upperback -8.05918 2.09115 -0.0137254
thorax -10.8135 0.53309 -3.52202
lowerneck -13.953 -4.69244 -3.05722
upperneck 39.2915 -9.93593 8.44012
head 17.4594 -3.42643 2.51606
rclavicle 5.36719e-015 0
rhumerus -27.809 20.4447 -57.1195
rradius 45.5895
rwrist 62.3637
rhand 3.54597 -421.183
rfingers 7.12502
rthumb 28.9821 -808.95
lclavicle 5.36719e-015 0
lhumerus -25.7671 -19.5011 53.8377
lradius 52.7956
lwrist -62.7272
lhand -34.3707 11.0322
lfingers 7.12502
lthumb -7.53734 40.8779
rfemur 0.104811 25.1083 24.5743
rtibia 1.4814
rfoot -11.5796 -24.8314
rtoes 2.44666
lfemur 9.44014 -42.4023 -16.0442
ltibia -4.77441
lfoot -18.4861 48.8721
ltoes 6.27959
1463
root 0.453998 17.5134 8.03098 6.82211 -2.38163 -6.7523
lowerback 4.19797 1.12109 5.77206
upperback -8.05396 2.07063 -0.0249702
thorax -10.7949 0.522979 -3.53316
lowerneck -13.9146 -4.69317 -3.02831
upperneck 39.2561 -9.937 8.42881
head 17.4262 -3.4263 2.50467
rclavicle 1.25234e-014 -7.15625e-015
rhumerus -27.3387 16.7089 -56.4858
rradius 45.759
rwrist 63.9218
rhand -0.809235 -420.832
rfingers 7.12502
rthumb 24.815 -809.242
lclavicle 1.25234e-014 -7.15625e-015
lhumerus -25.3139 -15.4956 53.8745
lradius 53.6292
lwrist -61.4721
lhand -38.6877 7.91036
lfingers 7.12502
lthumb -11.7025 37.5635
rfemur 0.117368 25.0159 24.5352
rtibia 1.46363
rfoot -11.5993 -24.7791
rtoes 2.83502
lfemur 9.46244 -42.4906 -16.1184
ltibia -4.74145
lfoot -18.5836 48.9213
ltoes 6.29545
1464
root 0.457321 17.5127 8.0299 6.81768 -2.34088 -6.72713
lowerback 4.18484 1.12086 5.76981
upperback -8.07831 2.06895 -0.0383844
thorax -10.8144 0.520535 -3.54618
lowerneck -13.8469 -4.70274 -3.0103
upperneck 39.2599 -9.9408 8.38889
head 17.4059 -3.4326 2.48378
rclavicle -5.46658e-015 1.59028e-015
rhumerus -27.1318 13.0595 -56.0215
rradius 46.2861
rwrist 64.5451
rhand -4.21883 -421.097
rfingers 7.12502
rthumb 21.5438 -809.919
lclavicle -5.46658e-015 1.59028e-015
lhumerus -25.0114 -11.8199 54.1769
lradius 54.7567
lwrist -59.6416
lhand -42.3401 4.57337
lfingers 7.12502
lthumb -15.2227 33.9933
rfemur 0.135791 24.9853 24.4931
rtibia 1.43538
rfoot -11.6415 -24.7903
rtoes 2.85112
lfemur 9.47856 -42.6375 -16.2218
ltibia -4.67144
lfoot -18.6843 49.0066
ltoes 6.34157
1465
root 0.459805 17.5124 8.02792 6.81483 -2.29955 -6.77329
lowerback 4.18064 1.10985 5.80798
upperback -8.12028 2.06109 -0.0176272
thorax -10.8607 0.512157 -3.54475
lowerneck -13.7895 -4.69508 -2.97839
upperneck 39.3061 -9.92274 8.33579
head 17.408 -3.42829 2.46007
rclavicle -2.47487e-014 -1.90833e-014
rhumerus -27.0348 9.70119 -55.8767
rradius 47.4008
rwrist 61.5681
rhand -7.13662 -421.268
rfingers 7.12502
rthumb 18.7394 -989.615
lclavicle -2.47487e-014 -1.90833e-014
lhumerus -24.8838 -8.06709 54.5742
lradius 55.8234
lwrist -58.6044
lhand -46.2451 0.611058
lfingers 7.12502
lthumb -18.9815 29.7049
rfemur 0.140522 25.019 24.5446
rtibia 1.43168
rfoot -11.6593 -24.8356
rtoes 2.62876
lfemur 9.48573 -42.6896 -16.1749
ltibia -4.70459
lfoot -18.6008 49.0409
ltoes 6.27969
1466
root 0.462234 17.5116 8.02632 6.81287 -2.26307 -6.84111
lowerback 4.16317 1.08174 5.869
upperback -8.14998 2.0327 0.0229447
thorax -10.8875 0.493834 -3.5314
lowerneck -13.8026 -4.66511 -2.92599
upperneck 39.3799 -9.87486 8.26821
head 17.4385 -3.40761 2.4314
rclavicle -8.94531e-016 2.3059e-014
rhumerus -26.9463 6.63727 -55.9325
rradius 48.632
rwrist 57.7173
rhand -9.86239 -421.587
rfingers 7.12502
rthumb 16.1162 -989.063
lclavicle -8.94531e-016 2.3059e-014
lhumerus -24.84 -4.1557 55.046
lradius 56.9204
lwrist -58.0615
lhand -49.8389 -4.5943
lfingers 7.12502
lthumb -22.4345 24.1228
rfemur 0.135517 25.0255 24.6191
rtibia 1.44416
rfoot -11.6255 -24.8749
rtoes 2.61821
lfemur 9.50442 -42.718 -16.0881
ltibia -4.78158
lfoot -18.4638 49.0729
ltoes 6.18208
1467
root 0.464643 17.5104 8.02488 6.81566 -2.23734 -6.83879
lowerback 4.13091 1.04417 5.86268
upperback -8.15989 1.98195 0.0515082
thorax -10.8856 0.471105 -3.48967
lowerneck -13.8968 -4.62936 -2.86898
upperneck 39.4683 -9.80186 8.15357
head 17.4914 -3.37935 2.38375
rclavicle -2.04748e-014 8.74653e-015
rhumerus -26.822 3.89914 -56.1257
rradius 49.935
rwrist 53.5424
rhand -12.3696 -421.403
rfingers 7.12502
rthumb 13.7008 -989.068
lclavicle -2.04748e-014 8.74653e-015
lhumerus -24.8468 -0.816298 55.6799
lradius 58.4015
lwrist -56.1388
lhand -52.3221 -11.0467
lfingers 7.12502
lthumb -24.8163 17.363
rfemur 0.132138 25.0429 24.6107
rtibia 1.45247
rfoot -11.6436 -24.9324
rtoes 2.75053
lfemur 9.51603 -42.7968 -16.1044
ltibia -4.82106
lfoot -18.2347 49.1853
ltoes 5.87051
1468
root 0.466039 17.509 8.02261 6.81541 -2.21944 -6.80823
lowerback 4.11601 1.00546 5.8111
upperback -8.16705 1.92546 0.0696673
thorax -10.8919 0.448609 -3.43364
lowerneck -13.9787 -4.59406 -2.81437
upperneck 39.5217 -9.7207 8.03178
head 17.5199 -3.35056 2.33354
rclavicle -1.98785e-015 -1.11319e-014
rhumerus -26.6904 1.42595 -56.4402
rradius 51.2753
rwrist 49.3749
rhand -14.4208 -421.205
rfingers 7.12502
rthumb 11.7233 -989.143
lclavicle -1.98785e-015 -1.11319e-014
lhumerus -24.9197 1.76203 56.4317
lradius 60.1228
lwrist -52.8533
lhand -54.0143 -18.0229
lfingers 7.12502
lthumb -26.437 10.1534
rfemur 0.128854 25.1252 24.5708
rtibia 1.45677
rfoot -11.752 -25.0093
rtoes 2.96686
lfemur 9.46469 -42.7018 -16.078
ltibia -4.87059
lfoot -17.8714 49.1556
ltoes 5.40633
1469
root 0.467161 17.5082 8.02143 6.81294 -2.21239 -6.77678
lowerback 4.09693 1.0021 5.78544
upperback -8.18438 1.91684 0.0597526
thorax -10.901 0.445438 -3.42859
lowerneck -13.9908 -4.5699 -2.78065
upperneck 39.5196 -9.67365 7.98665
head 17.5107 -3.33184 2.31541
rclavicle -2.41523e-014 1.66979e-014
rhumerus -26.6822 -0.74201 -56.8809
rradius 52.723
rwrist 44.979
rhand -15.793 -421.5
rfingers 7.12502
rthumb 10.3998 -988.778
lclavicle -2.41523e-014 1.66979e-014
lhumerus -24.9771 3.98851 57.2857
lradius 61.8334
lwrist -48.9154
lhand -55.5809 -24.8575
lfingers 7.12502
lthumb -27.9356 3.08434
rfemur 0.126486 25.1545 24.524
rtibia 1.45043
rfoot -11.7743 -25.0374
rtoes 3.14642
lfemur 9.39893 -42.5138 -16.0422
ltibia -4.87863
lfoot -17.7641 48.9775
ltoes 5.40549
1470
root 0.46895 17.5081 8.02136 6.81631 -2.22074 -6.73305
lowerback 4.06793 1.01791 5.77164
upperback -8.22362 1.93311 0.0249121
thorax -10.9254 0.451093 -3.46032
lowerneck -13.9163 -4.54404 -2.79386
upperneck 39.4724 -9.66104 8.08068
head 17.4729 -3.31937 2.36363
rclavicle 1.68967e-014 -5.56597e-015
rhumerus -26.7402 -2.6902 -57.4276
rradius 54.6613
rwrist 38.0417
rhand -16.9032 -422.439
rfingers 7.12502
rthumb 9.32875 -987.787
lclavicle 1.68967e-014 -5.56597e-015
lhumerus -25.0652 5.84981 58.2383
lradius 63.6553
lwrist -43.771
lhand -56.6674 -31.3198
lfingers 7.12502
lthumb -28.9739 -3.55154
rfemur 0.116901 25.0921 24.4549
rtibia 1.44183
rfoot -11.696 -24.9887
rtoes 3.05738
lfemur 9.3766 -42.4548 -16.0868
ltibia -4.84932
lfoot -17.938 48.8806
ltoes 5.83975
1471
root 0.470666 17.5076 8.02084 6.84031 -2.23058 -6.70789
lowerback 3.8455 0.977547 5.66346
upperback -8.14052 1.85451 0.0824646
thorax -10.7068 0.434258 -3.31985
lowerneck -13.9105 -4.47006 -2.83134
upperneck 39.3362 -9.56236 8.19295
head 17.3969 -3.27332 2.43604
rclavicle 4.57205e-015 -7.95139e-015
rhumerus -26.5141 -4.48344 -58.0711
rradius 56.563
rwrist 30.8334
rhand -17.2902 -422.862
rfingers 7.12502
rthumb 8.9553 -987.348
lclavicle 4.57205e-015 -7.95139e-015
lhumerus -25.1294 7.64578 59.2517
lradius 65.5867
lwrist -37.5604
lhand -56.8748 -37.5265
lfingers 7.12502
lthumb -29.172 -9.79242
rfemur 0.0768837 25.0577 24.4024
rtibia 1.45219
rfoot -11.6817 -24.9528
rtoes 2.76957
lfemur 9.37838 -42.6187 -16.1628
ltibia -4.79782
lfoot -18.2872 48.9835
ltoes 6.25919
